<svg xmlns="http://www.w3.org/2000/svg" viewBox="0 0 96 96">
<path d="M8 74 V42 L12 10 L34 28 H62 L84 10 L88 42 V74 Q88 86 76 86 H20 Q8 86 8 74 Z" fill="#3B3F77" stroke="#2A2D52" stroke-width="5" stroke-linejoin="round"/>
<rect x="17" y="37" width="62" height="28" rx="4" fill="#17182E" stroke="#2A2D52" stroke-width="3"/>
<g fill="#FFB7CF"><rect x="23" y="53" width="5" height="7"/><rect x="31" y="47" width="5" height="13"/><rect x="39" y="42" width="5" height="18"/><rect x="47" y="49" width="5" height="11"/><rect x="55" y="45" width="5" height="15"/><rect x="63" y="51" width="5" height="9"/></g>
<rect x="17" y="70" width="62" height="7" rx="3.5" fill="#CFC5EE" stroke="#2A2D52" stroke-width="2.5"/>
<rect x="17" y="70" width="30" height="7" rx="3.5" fill="#F17D9E" stroke="#2A2D52" stroke-width="2.5"/>
</svg>